<svg xmlns="http://www.w3.org/2000/svg" viewBox="0 0 64 64"><defs><style>.cls-1{fill:#ebeff1;}.cls-2{fill:#cfd8dd;}</style></defs><title>Veg Onion</title><g id="Layer_2" data-name="Layer 2"><g id="Layer_1-2" data-name="Layer 1"><path class="cls-1" d="M64,40A24,24,0,0,1,41.23,64c-.43,0-.87,0-1.31,0H24A24,24,0,0,1,13.28,18.52a27.6,27.6,0,0,0,9.38-7.64A28.77,28.77,0,0,0,28,0h8A28.3,28.3,0,0,0,50.72,18.52,24,24,0,0,1,64,40Z"/><path class="cls-2" d="M64,40A24,24,0,0,1,41.23,64c-.43,0-.87,0-1.31,0H32V0h4A28.3,28.3,0,0,0,50.72,18.52,24,24,0,0,1,64,40Z"/><path class="cls-1" d="M52,40c0,13.25-6.72,24-15,24H32V0h2.5c1.25,8,4.58,14.83,9.2,18.52a20.78,20.78,0,0,1,6,8.69A35.11,35.11,0,0,1,52,40Z"/><path class="cls-2" d="M12,40c0,13.25,6.72,24,15,24h5V0H29.5c-1.25,8-4.58,14.83-9.2,18.52a20.78,20.78,0,0,0-6,8.69A35.11,35.11,0,0,0,12,40Z"/></g></g></svg>